# xmcd
#
# Track frame offsets:
#	150
#	17112
#	34107
#	49357
#	66417
#	81715
#	98252
#	113717
#	130057
#	143225
#	160402
#	177380
#	194434
#	209659
#	226817
#	242052
#	258565
#	274147
#	290480
#	303552
#
# Disc length: 4371 seconds
#
# Revision: 1
# Processed by: cddbd v1.5.1PL0 Copyright (c) Steve Scherf et al.
# Submitted via: audiograbber 1.83.01
#
DISCID=31111114
DTITLE=Various Artist - Top Hits Monthly Country - April 1999
DYEAR=1999
DGENRE=Karaoke
TTITLE0=Alan Jackson - Gone Crazy (Vocal)
TTITLE1=Collin Raye - Anyone Else (Vocal)
TTITLE2=Jessica Andrews - I Will Be There For You (Vocal)
TTITLE3=Terri Clark - Everytime I Cry (Vocal)
TTITLE4=Black Hawk - Your Own Little Corner Of My (Vocal)
TTITLE5=Cint Black - You Don't Need Me Now (Vocal)
TTITLE6=Aaron Tippin - I'm Leaving (Vocal)
TTITLE7=Lonestar - Saturday Night (Vocal)
TTITLE8=Deana Carter - You Still Shake Me (Vocal)
TTITLE9=Travis Tritt - No More Lookin Over My Shoulder (Vocal)
TTITLE10=Alan Jackson - Gone Crazy 
TTITLE11=Collin Raye - Anyone Else
TTITLE12=Jessica Andrews - I Will Be There For You 
TTITLE13=Terri Clark - Everytime I Cry
TTITLE14=Black Hawk - Your Own Little Corner Of My
TTITLE15=Cint Black - You Don't Need Me Now
TTITLE16=Aaron Tippin - I'm Leaving 
TTITLE17=Lonestar - Saturday Night 
TTITLE18=Deana Carter - You Still Shake Me 
TTITLE19=Travis Tritt - No More Lookin Over My Shoulder
EXTD=
EXTT0=
EXTT1=
EXTT2=
EXTT3=
EXTT4=
EXTT5=
EXTT6=
EXTT7=
EXTT8=
EXTT9=
EXTT10=
EXTT11=
EXTT12=
EXTT13=
EXTT14=
EXTT15=
EXTT16=
EXTT17=
EXTT18=
EXTT19=
PLAYORDER=
